<svg xmlns="http://www.w3.org/2000/svg" xmlns:xlink="http://www.w3.org/1999/xlink" width="8000" zoomAndPan="magnify" viewBox="0 0 6000 2250.000011" height="3000" preserveAspectRatio="xMidYMid meet" version="1.0"><defs><filter x="0%" y="0%" width="100%" height="100%" id="2dc3d95f6e"><feColorMatrix values="0 0 0 0 1 0 0 0 0 1 0 0 0 0 1 0 0 0 1 0" color-interpolation-filters="sRGB"/></filter><g/><clipPath id="17346020c0"><path d="M 1.332031 616 L 977 616 L 977 2249 L 1.332031 2249 Z M 1.332031 616 " clip-rule="nonzero"/></clipPath><mask id="9348ceab0f"><g filter="url(#2dc3d95f6e)"><rect x="-600" width="7200" fill="#000000" y="-225.000001" height="2700.000013" fill-opacity="0.66"/></g></mask><clipPath id="5f82f23ff1"><path d="M 0.332031 1 L 971.152344 1 L 971.152344 923.761719 L 0.332031 923.761719 Z M 0.332031 1 " clip-rule="nonzero"/></clipPath><clipPath id="bf9c0cefad"><rect x="0" width="976" y="0" height="1633"/></clipPath></defs><g fill="#5f8081" fill-opacity="1"><g transform="translate(1046.485853, 1502.947112)"><g><path d="M 430.140625 -142.671875 L 432.9375 0 L 338.515625 0 L 342.703125 -134.28125 L 342.015625 -186.734375 L 240.59375 -187.4375 L 148.96875 -186.046875 L 148.28125 -142.671875 L 151.765625 0 L 57.34375 0 L 62.25 -134.28125 L 57.34375 -450.421875 L 153.171875 -450.421875 L 150.375 -264.375 L 246.890625 -262.984375 L 341.3125 -264.375 L 338.515625 -450.421875 L 435.03125 -450.421875 Z M 430.140625 -142.671875 "/></g></g></g><g fill="#5f8081" fill-opacity="1"><g transform="translate(1640.28018, 1502.947112)"><g><path d="M 135.6875 -113.296875 L 139.1875 0 L 51.0625 0 L 54.546875 -104.90625 L 51.0625 -353.203125 L 140.578125 -353.203125 Z M 135.6875 -113.296875 "/></g></g></g><g fill="#5f8081" fill-opacity="1"><g transform="translate(1942.425719, 1502.947112)"><g><path d="M 176.25 -358.09375 C 209.820312 -358.09375 241.992188 -352.265625 272.765625 -340.609375 L 259.484375 -262.28125 L 246.890625 -258.78125 C 231.972656 -269.96875 217.519531 -278.359375 203.53125 -283.953125 C 189.539062 -289.554688 176.71875 -292.359375 165.0625 -292.359375 C 152 -292.359375 141.738281 -289.207031 134.28125 -282.90625 C 126.820312 -276.613281 123.09375 -269.035156 123.09375 -260.171875 C 123.09375 -250.378906 127.753906 -242.335938 137.078125 -236.046875 C 146.410156 -229.753906 161.097656 -222.410156 181.140625 -214.015625 C 202.128906 -205.160156 219.265625 -197 232.546875 -189.53125 C 245.835938 -182.070312 257.257812 -171.695312 266.8125 -158.40625 C 276.375 -145.125 281.15625 -128.457031 281.15625 -108.40625 C 281.15625 -88.351562 275.910156 -69.582031 265.421875 -52.09375 C 254.929688 -34.613281 239.078125 -20.507812 217.859375 -9.78125 C 196.648438 0.9375 170.425781 6.296875 139.1875 6.296875 C 122.394531 6.296875 104.085938 4.546875 84.265625 1.046875 C 64.453125 -2.453125 45.222656 -7.929688 26.578125 -15.390625 L 38.46875 -97.921875 L 47.5625 -104.21875 C 62.945312 -90.226562 80.195312 -79.035156 99.3125 -70.640625 C 118.425781 -62.242188 135.445312 -58.046875 150.375 -58.046875 C 163.425781 -58.046875 174.03125 -61.3125 182.1875 -67.84375 C 190.351562 -74.375 194.4375 -82.535156 194.4375 -92.328125 C 194.4375 -102.578125 189.65625 -110.847656 180.09375 -117.140625 C 170.539062 -123.441406 155.738281 -130.554688 135.6875 -138.484375 C 114.707031 -147.335938 97.570312 -155.609375 84.28125 -163.296875 C 70.988281 -170.992188 59.5625 -181.601562 50 -195.125 C 40.445312 -208.65625 35.671875 -225.441406 35.671875 -245.484375 C 35.671875 -266.472656 41.378906 -285.59375 52.796875 -302.84375 C 64.222656 -320.09375 80.546875 -333.613281 101.765625 -343.40625 C 122.984375 -353.195312 147.8125 -358.09375 176.25 -358.09375 Z M 176.25 -358.09375 "/></g></g></g><g fill="#5f8081" fill-opacity="1"><g transform="translate(2360.671292, 1502.947112)"><g><path d="M 295.84375 -346.203125 L 290.953125 -279.0625 L 219.609375 -283.953125 L 199.328125 -283.953125 L 197.234375 -113.296875 L 200.03125 0 L 112.609375 0 L 116.09375 -104.90625 L 114.703125 -283.953125 L 94.421875 -283.953125 L 21.6875 -279.0625 L 16.09375 -286.0625 L 20.984375 -353.203125 L 290.953125 -353.203125 Z M 295.84375 -346.203125 "/></g></g></g><g fill="#5f8081" fill-opacity="1"><g transform="translate(2779.616215, 1502.947112)"><g><path d="M 202.828125 -358.796875 C 255.984375 -358.796875 297.015625 -343.640625 325.921875 -313.328125 C 354.828125 -283.023438 369.28125 -240.128906 369.28125 -184.640625 C 369.28125 -124.023438 353.539062 -77.046875 322.0625 -43.703125 C 290.59375 -10.367188 246.1875 6.296875 188.84375 6.296875 C 136.15625 6.296875 95.351562 -9.203125 66.4375 -40.203125 C 37.53125 -71.210938 23.078125 -114.929688 23.078125 -171.359375 C 23.078125 -231.035156 38.695312 -277.191406 69.9375 -309.828125 C 101.175781 -342.472656 145.472656 -358.796875 202.828125 -358.796875 Z M 195.140625 -287.453125 C 166.222656 -287.453125 145.585938 -279.640625 133.234375 -264.015625 C 120.878906 -248.398438 114.703125 -221.476562 114.703125 -183.25 C 114.703125 -152.46875 117.378906 -128.332031 122.734375 -110.84375 C 128.097656 -93.363281 136.722656 -80.894531 148.609375 -73.4375 C 160.503906 -65.976562 176.476562 -62.25 196.53125 -62.25 C 225.90625 -62.25 246.769531 -69.941406 259.125 -85.328125 C 271.488281 -100.710938 277.671875 -127.753906 277.671875 -166.453125 C 277.671875 -197.234375 274.867188 -221.363281 269.265625 -238.84375 C 263.671875 -256.332031 255.046875 -268.804688 243.390625 -276.265625 C 231.734375 -283.722656 215.648438 -287.453125 195.140625 -287.453125 Z M 195.140625 -287.453125 "/></g></g></g><g fill="#5f8081" fill-opacity="1"><g transform="translate(3278.292352, 1502.947112)"><g><path d="M 261.578125 -139.1875 C 292.816406 -93.957031 321.957031 -54.320312 349 -20.28125 L 348.296875 -10.484375 C 319.390625 -1.628906 290.953125 3.726562 262.984375 5.59375 L 250.390625 -2.796875 C 224.273438 -48.023438 203.992188 -85.09375 189.546875 -114 L 135.6875 -114 L 135.6875 -113.296875 L 139.1875 0 L 51.0625 0 L 54.546875 -104.90625 L 51.0625 -353.203125 L 203.53125 -353.90625 C 243.164062 -353.90625 273.820312 -344.691406 295.5 -326.265625 C 317.175781 -307.847656 328.015625 -281.625 328.015625 -247.59375 C 328.015625 -225.675781 322.1875 -205.273438 310.53125 -186.390625 C 298.875 -167.503906 282.554688 -151.769531 261.578125 -139.1875 Z M 137.078125 -181.140625 L 189.546875 -178.34375 C 205.390625 -183.476562 217.039062 -190.941406 224.5 -200.734375 C 231.96875 -210.523438 235.703125 -223.113281 235.703125 -238.5 C 235.703125 -255.28125 230.804688 -267.75 221.015625 -275.90625 C 211.222656 -284.070312 195.832031 -288.617188 174.84375 -289.546875 L 139.1875 -288.15625 Z M 137.078125 -181.140625 "/></g></g></g><g fill="#5f8081" fill-opacity="1"><g transform="translate(3751.790279, 1502.947112)"><g><path d="M 135.6875 -113.296875 L 139.1875 0 L 51.0625 0 L 54.546875 -104.90625 L 51.0625 -353.203125 L 140.578125 -353.203125 Z M 135.6875 -113.296875 "/></g></g></g><g fill="#5f8081" fill-opacity="1"><g transform="translate(4053.935818, 1502.947112)"><g><path d="M 352.5 0 L 263.671875 0 L 253.890625 -51.0625 L 247.59375 -71.34375 L 176.25 -72.03125 L 113.296875 -70.640625 L 108.40625 -55.953125 L 97.921875 0 L 11.890625 0 L 135.6875 -353.203125 L 239.890625 -353.203125 Z M 228.703125 -137.78125 L 188.84375 -272.765625 L 183.25 -272.765625 L 136.390625 -137.78125 L 181.84375 -137.078125 Z M 228.703125 -137.78125 "/></g></g></g><g fill="#5f8081" fill-opacity="1"><g transform="translate(4530.930762, 1502.947112)"><g><path d="M 367.1875 -111.90625 L 370.6875 0 L 274.859375 0 L 133.59375 -218.921875 L 128.6875 -218.921875 L 127.984375 -123.796875 L 130.78125 0 L 51.0625 0 L 54.546875 -103.515625 L 51.0625 -353.203125 L 146.171875 -353.203125 L 287.453125 -134.28125 L 293.75 -134.28125 L 290.953125 -349.703125 L 372.078125 -355.296875 Z M 367.1875 -111.90625 "/></g></g></g><g clip-path="url(#17346020c0)"><g mask="url(#9348ceab0f)"><g transform="matrix(1, 0, 0, 1, 1, 616)"><g clip-path="url(#bf9c0cefad)"><g clip-path="url(#5f82f23ff1)"><path fill="#5f8081" d="M 69.03125 2482.027344 C 56.972656 2480.6875 45.589844 2476 35.542969 2468.632812 C 31.523438 2465.285156 23.488281 2457.246094 20.472656 2453.230469 C 13.105469 2442.847656 3.730469 2414.046875 1.386719 2394.289062 C 0.714844 2387.59375 0.714844 2368.171875 1.71875 2360.46875 C 2.054688 2357.121094 3.394531 2347.40625 4.734375 2339.371094 C 6.074219 2331 7.414062 2322.292969 7.746094 2319.949219 C 8.082031 2317.605469 8.417969 2306.21875 8.417969 2295.167969 C 8.753906 2283.78125 9.085938 2274.070312 9.421875 2273.066406 C 12.4375 2262.347656 12.769531 2260.675781 13.105469 2249.957031 C 13.441406 2239.914062 14.109375 2230.199219 14.78125 2227.523438 C 15.113281 2226.515625 14.78125 2226.183594 13.441406 2226.183594 C 9.757812 2226.183594 5.402344 2223.167969 3.730469 2219.820312 C 2.054688 2215.800781 2.390625 2191.019531 4.0625 2184.992188 C 4.734375 2182.984375 5.738281 2181.644531 8.082031 2179.96875 C 8.753906 2179.632812 8.753906 2178.964844 7.414062 2172.9375 C 6.742188 2169.253906 5.738281 2162.554688 5.070312 2157.867188 C 4.398438 2152.175781 3.394531 2147.484375 2.390625 2144.136719 L 1.050781 2139.113281 L 1.71875 2128.398438 C 2.054688 2122.371094 2.722656 2115.003906 3.058594 2111.988281 C 4.0625 2103.28125 7.078125 2088.210938 11.765625 2070.128906 C 16.453125 2051.710938 18.128906 2042.335938 20.472656 2011.859375 C 21.144531 2003.152344 22.480469 1991.097656 23.152344 1985.40625 C 23.820312 1979.378906 25.160156 1966.316406 26.164062 1955.9375 C 29.179688 1921.777344 30.183594 1914.410156 35.878906 1889.628906 C 39.894531 1873.554688 40.566406 1868.867188 43.578125 1848.773438 C 47.261719 1825.667969 49.605469 1815.621094 54.296875 1805.242188 L 56.304688 1800.886719 L 55.96875 1793.183594 C 55.300781 1783.140625 55.96875 1772.421875 57.644531 1761.371094 C 59.320312 1751.324219 60.992188 1746.300781 64.675781 1739.941406 C 70.371094 1730.226562 77.738281 1714.488281 80.75 1705.449219 C 84.433594 1695.402344 85.105469 1690.378906 88.117188 1663.921875 C 89.792969 1649.523438 90.460938 1646.175781 95.152344 1631.773438 C 97.160156 1626.082031 99.167969 1618.714844 99.503906 1615.699219 C 102.183594 1602.640625 102.183594 1602.640625 102.183594 1580.203125 C 102.183594 1554.417969 102.519531 1553.75 107.207031 1533.65625 C 111.558594 1515.90625 111.558594 1514.234375 112.5625 1485.769531 C 113.570312 1456.296875 114.574219 1437.546875 116.582031 1419.796875 L 117.253906 1413.769531 L 115.578125 1407.40625 C 113.234375 1399.035156 111.558594 1393.007812 110.554688 1386.644531 C 109.550781 1381.957031 109.550781 1379.613281 109.550781 1370.90625 L 109.550781 1360.523438 L 111.558594 1348.804688 C 115.914062 1324.355469 116.582031 1316.988281 115.242188 1298.90625 C 114.238281 1284.171875 113.902344 1265.082031 114.574219 1256.375 C 114.910156 1248.675781 115.914062 1243.652344 117.585938 1236.617188 C 120.265625 1225.566406 120.265625 1223.894531 120.9375 1206.816406 C 122.609375 1168.972656 123.28125 1164.621094 132.320312 1149.886719 C 133.996094 1147.207031 135.335938 1144.863281 135 1144.527344 C 129.976562 1141.179688 127.96875 1137.160156 127.632812 1127.113281 C 127.300781 1120.417969 127.96875 1097.644531 128.636719 1090.949219 L 128.972656 1086.257812 L 122.609375 1079.5625 C 115.578125 1072.527344 112.898438 1068.84375 111.558594 1064.492188 C 110.21875 1060.140625 110.890625 1046.074219 112.898438 1035.359375 C 114.238281 1027.65625 114.238281 1025.980469 114.238281 1017.609375 C 114.238281 1010.910156 113.902344 1006.558594 113.234375 1000.867188 C 112.898438 996.511719 111.894531 988.476562 111.226562 983.117188 C 110.890625 977.425781 109.550781 966.375 108.878906 958.335938 C 106.535156 936.234375 106.203125 930.207031 105.195312 915.136719 C 104.863281 907.433594 104.191406 899.398438 103.855469 897.386719 C 103.523438 895.042969 102.851562 889.015625 102.183594 883.660156 C 101.179688 873.277344 99.167969 855.195312 98.164062 843.136719 C 97.828125 838.785156 97.160156 834.097656 96.824219 832.757812 C 96.488281 831.417969 95.152344 824.71875 93.476562 817.6875 C 92.136719 810.65625 89.792969 800.273438 88.453125 794.246094 C 85.105469 779.175781 83.765625 772.8125 80.082031 752.386719 C 78.40625 742.675781 75.726562 728.609375 74.386719 720.90625 C 70.035156 697.464844 69.699219 694.789062 67.691406 683.738281 C 65.679688 671.011719 64.007812 658.285156 63.003906 647.234375 C 61.664062 634.84375 61.996094 599.347656 63.003906 584.277344 C 63.671875 578.25 64.34375 567.867188 65.011719 561.171875 C 68.027344 519.980469 73.046875 484.820312 78.742188 465.394531 C 81.421875 455.351562 88.453125 439.945312 93.476562 432.242188 C 98.164062 425.210938 111.894531 411.480469 125.289062 400.09375 C 128.636719 397.417969 133.328125 393.398438 135.671875 391.054688 C 143.375 384.355469 150.742188 379.667969 163.464844 372.96875 C 173.175781 367.945312 181.550781 364.597656 192.265625 360.914062 C 197.625 359.242188 202.3125 357.566406 202.644531 357.230469 C 202.980469 357.230469 202.980469 355.890625 202.980469 354.886719 C 202.980469 352.207031 204.320312 347.855469 206.332031 344.839844 C 207.335938 343.5 211.019531 339.148438 214.703125 335.464844 C 218.386719 331.445312 224.078125 325.753906 227.09375 322.070312 C 234.460938 314.03125 242.496094 306.664062 245.175781 305.324219 C 248.191406 303.984375 251.539062 303.316406 254.550781 303.984375 C 255.890625 304.320312 257.230469 304.320312 257.230469 303.984375 C 258.234375 302.980469 264.933594 281.882812 266.609375 274.515625 C 268.28125 266.480469 268.28125 266.480469 266.273438 263.800781 C 262.925781 259.445312 257.230469 245.71875 255.222656 238.347656 C 254.550781 236.339844 253.210938 228.972656 251.875 222.277344 C 250.535156 215.578125 247.855469 203.1875 245.511719 194.480469 C 240.152344 172.378906 238.8125 164.339844 236.804688 145.253906 C 234.460938 123.488281 236.46875 99.710938 241.828125 82.964844 C 246.515625 68.566406 257.230469 52.828125 267.277344 45.796875 C 268.953125 44.457031 270.292969 43.117188 271.296875 41.441406 C 273.640625 37.421875 277.992188 32.398438 281.34375 29.386719 C 288.375 23.691406 296.078125 20.007812 308.46875 16.324219 C 317.84375 13.648438 323.539062 11.636719 333.582031 7.953125 C 344.96875 3.601562 352 2.261719 366.066406 1.257812 C 373.769531 0.921875 382.140625 0.921875 390.847656 1.925781 C 394.867188 2.261719 418.308594 6.613281 431.03125 9.292969 C 442.753906 11.972656 450.457031 15.65625 459.832031 23.359375 C 461.507812 25.03125 463.851562 26.371094 464.855469 26.371094 C 476.578125 29.386719 478.921875 30.390625 482.605469 33.40625 C 483.945312 34.410156 484.949219 35.414062 484.949219 35.75 C 484.949219 36.753906 484.949219 36.417969 482.269531 35.414062 C 479.253906 34.074219 470.214844 31.394531 470.214844 32.066406 C 470.214844 32.066406 471.886719 33.40625 473.898438 35.078125 C 477.246094 37.421875 478.921875 38.425781 483.273438 40.4375 C 485.28125 41.105469 484.949219 42.445312 482.9375 42.445312 C 481.933594 42.445312 480.261719 42.78125 478.921875 43.117188 L 476.574219 43.785156 L 479.253906 44.457031 C 482.605469 45.125 485.953125 46.800781 487.628906 48.808594 L 488.964844 50.148438 L 487.292969 49.8125 C 486.621094 49.8125 484.613281 49.480469 483.609375 49.144531 C 481.265625 48.472656 471.21875 49.480469 472.222656 50.148438 C 473.226562 50.816406 482.605469 52.828125 486.289062 53.164062 C 488.296875 53.496094 491.644531 53.496094 493.320312 53.496094 C 498.679688 53.164062 497.003906 54.835938 490.640625 56.175781 L 487.960938 56.847656 L 490.304688 57.515625 C 494.660156 59.191406 499.347656 61.867188 499.347656 63.207031 C 499.347656 63.878906 499.347656 63.878906 496.335938 62.875 C 493.65625 61.871094 487.292969 61.199219 483.273438 61.199219 C 480.929688 61.199219 480.929688 61.199219 481.597656 61.871094 C 482.269531 62.203125 485.28125 63.207031 487.960938 64.546875 C 494.324219 67.226562 496 67.898438 500.019531 68.566406 C 501.691406 68.902344 503.03125 69.238281 503.367188 69.570312 C 503.367188 70.242188 500.019531 70.574219 495.328125 70.574219 L 490.640625 70.574219 L 493.65625 73.589844 C 496.667969 76.605469 499.347656 81.292969 499.347656 82.632812 C 499.347656 82.964844 499.347656 83.300781 499.011719 83.300781 C 499.011719 83.300781 497.003906 81.625 494.996094 79.617188 C 488.964844 74.257812 488.964844 74.257812 490.640625 77.941406 C 492.652344 81.625 493.320312 84.640625 492.984375 85.644531 C 492.652344 86.648438 491.980469 85.980469 489.636719 82.632812 C 488.296875 80.289062 486.957031 79.28125 484.613281 77.609375 C 482.9375 76.605469 481.597656 75.597656 481.265625 75.597656 C 480.59375 75.597656 484.277344 81.625 486.621094 84.976562 C 487.960938 86.648438 490.304688 89.664062 491.980469 91.003906 C 493.65625 92.34375 494.996094 94.015625 494.996094 94.015625 C 494.996094 94.6875 492.984375 94.015625 490.304688 92.679688 L 487.960938 91.671875 L 489.300781 93.683594 C 489.972656 94.6875 490.976562 96.363281 491.3125 97.03125 C 491.980469 98.035156 491.980469 98.707031 491.644531 98.707031 C 490.976562 99.039062 489.300781 97.699219 485.28125 94.015625 L 482.605469 91.339844 L 483.945312 93.683594 C 487.628906 100.046875 492.652344 110.425781 494.996094 117.457031 C 497.339844 123.820312 498.679688 129.847656 500.019531 139.894531 C 501.355469 148.265625 501.691406 149.605469 503.703125 154.964844 C 505.039062 157.980469 506.046875 161.664062 506.378906 163.003906 C 506.714844 166.351562 505.375 171.375 502.695312 177.066406 C 501.355469 179.746094 500.019531 183.09375 499.683594 184.433594 C 499.011719 187.113281 499.347656 188.453125 501.691406 196.824219 C 504.371094 205.53125 504.707031 211.558594 503.703125 226.292969 C 503.367188 235 502.363281 241.027344 499.011719 254.089844 C 496.335938 265.476562 495.328125 269.828125 493.988281 277.863281 C 493.320312 280.878906 491.644531 289.921875 489.636719 297.957031 C 486.957031 309.007812 485.953125 314.03125 485.285156 320.394531 C 484.277344 330.105469 483.609375 332.785156 481.601562 337.472656 C 480.261719 339.816406 479.253906 341.492188 476.578125 344.171875 C 469.878906 350.867188 463.515625 352.542969 438.402344 352.878906 C 422.996094 353.210938 422.660156 353.210938 419.3125 354.550781 C 414.960938 356.226562 413.621094 356.894531 411.273438 360.578125 C 409.265625 363.59375 404.242188 371.964844 402.570312 375.648438 L 401.5625 377.660156 L 407.257812 383.351562 L 412.949219 389.042969 L 415.964844 386.367188 C 425.339844 377.992188 443.757812 365.9375 453.46875 361.917969 C 459.832031 359.242188 472.222656 356.5625 478.25 356.5625 C 480.261719 356.5625 480.929688 356.226562 488.632812 351.203125 C 502.695312 342.160156 504.371094 341.15625 521.785156 326.085938 C 542.882812 308.003906 547.234375 304.320312 552.929688 299.632812 C 556.277344 296.953125 562.640625 291.261719 567.328125 287.242188 C 572.015625 283.222656 577.710938 278.199219 579.71875 276.191406 C 582.0625 274.179688 584.070312 272.507812 584.40625 272.171875 C 584.742188 272.171875 584.40625 271.167969 583.738281 270.496094 C 581.394531 267.484375 581.394531 264.136719 584.070312 260.117188 C 585.746094 257.4375 595.457031 248.394531 599.140625 245.714844 C 603.160156 242.703125 605.167969 242.367188 607.511719 243.371094 C 608.519531 243.707031 609.523438 244.042969 609.523438 244.042969 C 609.523438 244.042969 610.191406 242.703125 611.195312 241.363281 C 613.207031 237.679688 616.554688 233.328125 625.261719 221.605469 C 636.984375 206.535156 642.007812 200.84375 646.023438 199.503906 C 647.363281 199.167969 650.378906 198.832031 651.71875 199.167969 C 652.386719 199.503906 652.722656 199.167969 653.726562 196.488281 C 656.40625 189.121094 658.75 185.4375 661.429688 183.765625 C 663.101562 183.09375 667.457031 182.761719 673.820312 183.429688 L 678.171875 183.765625 L 679.511719 180.75 C 680.851562 177.402344 684.199219 173.71875 686.878906 172.042969 C 692.90625 168.695312 704.628906 168.695312 723.046875 173.046875 C 734.433594 175.726562 749.835938 181.421875 755.863281 185.4375 C 764.234375 191.132812 769.59375 200.84375 768.925781 209.214844 C 767.585938 221.605469 766.914062 225.957031 765.574219 228.972656 C 764.90625 229.976562 764.90625 230.980469 764.90625 230.980469 C 764.90625 230.980469 766.582031 231.316406 768.589844 231.652344 L 771.9375 232.320312 L 773.613281 230.980469 C 776.292969 228.636719 778.636719 228.304688 785 228.304688 C 794.710938 228.304688 803.417969 230.3125 807.101562 233.328125 L 808.773438 234.664062 L 810.785156 233.660156 C 813.464844 232.320312 817.816406 232.320312 820.832031 233.996094 C 822.171875 234.664062 823.175781 235.335938 823.507812 235.671875 C 823.84375 236.003906 824.515625 235.671875 825.519531 235.335938 C 828.53125 233.660156 835.898438 233.996094 847.621094 237.011719 L 853.3125 238.347656 L 854.988281 237.011719 C 856.664062 235.335938 859.007812 234.664062 861.351562 234.664062 C 864.03125 234.664062 874.074219 236.339844 876.753906 237.34375 C 879.097656 238.015625 879.433594 238.015625 880.4375 237.679688 C 883.453125 236.003906 892.160156 237.34375 897.183594 239.6875 C 900.53125 241.363281 902.207031 243.707031 902.207031 246.722656 C 902.207031 247.726562 902.207031 248.730469 902.539062 248.730469 C 903.878906 248.730469 947.414062 254.089844 947.75 254.089844 C 948.085938 254.089844 948.753906 253.417969 949.089844 252.414062 C 949.757812 250.070312 952.101562 247.054688 954.113281 246.050781 C 957.460938 244.378906 961.480469 245.382812 963.152344 248.0625 C 963.824219 249.066406 964.15625 249.066406 965.496094 248.730469 C 967.507812 248.394531 970.519531 249.398438 971.859375 251.074219 C 973.535156 253.082031 974.203125 255.09375 974.539062 263.800781 C 975.210938 273.847656 974.875 292.597656 973.871094 301.976562 C 970.855469 330.777344 964.828125 354.886719 958.464844 365.269531 C 955.785156 369.957031 952.4375 371.296875 948.085938 369.285156 C 946.746094 368.617188 946.074219 368.617188 945.40625 368.953125 C 944.066406 369.621094 941.050781 369.621094 939.378906 368.617188 C 937.367188 367.613281 935.695312 365.601562 935.023438 362.589844 L 934.355469 360.246094 L 888.140625 357.566406 C 888.140625 357.566406 887.472656 358.234375 886.800781 359.238281 C 885.128906 361.917969 882.113281 363.257812 878.09375 363.257812 C 876.421875 363.257812 874.746094 363.257812 874.074219 362.921875 C 873.40625 362.921875 873.070312 363.59375 871.730469 366.605469 C 868.046875 374.980469 861.351562 383.351562 855.992188 386.363281 C 852.308594 388.375 848.289062 389.378906 843.601562 389.042969 C 839.917969 388.710938 834.894531 387.371094 831.546875 385.695312 L 829.871094 384.691406 L 825.519531 388.039062 C 815.472656 395.742188 810.785156 397.75 804.085938 397.75 C 802.078125 397.75 799.0625 397.414062 798.058594 397.082031 L 796.050781 396.410156 L 793.371094 398.421875 C 790.023438 400.765625 783.996094 403.777344 780.308594 404.449219 C 778.972656 404.785156 774.617188 405.453125 771.269531 406.121094 C 763.566406 407.128906 762.226562 407.796875 756.199219 411.144531 C 750.507812 414.496094 743.140625 417.175781 738.785156 417.84375 C 737.109375 418.179688 735.4375 418.511719 735.101562 418.847656 C 734.765625 418.847656 734.765625 423.871094 735.101562 429.898438 C 735.4375 435.925781 735.773438 446.976562 736.105469 455.015625 C 736.441406 462.71875 736.777344 471.757812 737.109375 474.773438 C 738.117188 485.488281 738.449219 502.234375 738.785156 527.347656 C 739.121094 544.425781 739.457031 558.492188 740.125 569.207031 C 741.128906 583.609375 741.128906 588.964844 741.128906 621.449219 C 741.128906 646.230469 741.128906 659.960938 740.460938 665.316406 C 740.125 669.671875 739.457031 679.046875 739.121094 686.082031 C 737.445312 709.523438 737.445312 712.199219 736.105469 718.5625 C 734.433594 729.613281 731.753906 737.988281 728.402344 744.683594 C 726.394531 749.039062 722.375 754.394531 720.03125 756.738281 C 714.339844 761.761719 703.289062 768.125 697.59375 769.464844 C 691.566406 770.804688 672.480469 769.800781 654.0625 767.121094 C 643.34375 765.445312 628.609375 762.097656 622.582031 760.089844 C 621.242188 759.417969 616.890625 758.75 613.207031 758.078125 C 609.523438 757.410156 603.496094 756.070312 599.8125 755.066406 C 589.765625 752.386719 571.683594 746.691406 564.648438 744.015625 C 561.300781 742.675781 558.285156 741.671875 558.285156 741.671875 C 558.285156 741.671875 556.277344 744.347656 553.597656 748.03125 C 541.542969 765.78125 535.515625 772.8125 528.148438 778.171875 C 523.792969 781.1875 517.097656 784.871094 511.402344 786.878906 L 507.386719 788.21875 L 508.726562 792.90625 C 515.757812 817.6875 517.097656 827.734375 517.429688 868.253906 C 517.765625 888.011719 518.101562 894.375 518.4375 897.386719 C 519.441406 903.082031 522.121094 912.457031 527.144531 928.195312 C 531.496094 941.257812 536.183594 958.335938 538.863281 968.71875 C 539.867188 973.40625 540.539062 976.753906 541.542969 983.785156 C 542.210938 989.480469 542.882812 991.488281 548.574219 1006.558594 C 555.273438 1023.300781 556.613281 1027.320312 556.945312 1031.339844 C 557.617188 1039.042969 552.257812 1049.757812 545.226562 1055.117188 C 543.21875 1056.453125 542.546875 1057.460938 542.546875 1058.128906 C 544.890625 1070.183594 545.894531 1078.558594 546.230469 1087.933594 L 546.230469 1094.964844 L 548.238281 1097.308594 C 554.269531 1103.671875 559.960938 1116.398438 561.636719 1126.445312 C 562.976562 1134.148438 563.308594 1142.519531 562.976562 1157.589844 C 562.976562 1165.625 562.304688 1176.339844 561.96875 1181.03125 C 560.964844 1195.429688 560.964844 1205.140625 562.640625 1219.207031 C 565.652344 1246.664062 565.652344 1257.714844 562.640625 1279.148438 C 559.625 1300.914062 557.28125 1310.292969 547.234375 1346.792969 C 544.558594 1356.171875 542.210938 1364.542969 541.542969 1365.546875 C 541.207031 1366.214844 540.539062 1369.230469 540.203125 1371.574219 C 539.199219 1379.613281 537.523438 1389.65625 534.84375 1404.394531 C 531.160156 1423.816406 531.160156 1424.148438 528.484375 1441.230469 C 525.46875 1460.988281 523.460938 1470.699219 517.429688 1496.484375 C 508.390625 1535.664062 506.714844 1545.710938 505.710938 1566.472656 C 505.375 1571.832031 505.042969 1578.195312 504.707031 1580.871094 C 503.703125 1593.597656 499.683594 1610.675781 494.660156 1625.078125 C 492.652344 1631.441406 491.980469 1633.113281 490.976562 1641.152344 C 489.300781 1654.882812 488.96875 1656.21875 488.296875 1665.261719 C 486.621094 1686.023438 482.9375 1700.089844 477.246094 1709.132812 L 475.570312 1711.476562 L 476.242188 1715.828125 C 476.578125 1718.171875 477.246094 1723.53125 477.246094 1727.882812 C 477.582031 1740.609375 476.242188 1747.976562 471.886719 1757.019531 L 469.542969 1762.042969 L 470.546875 1767.066406 C 471.886719 1774.433594 472.222656 1778.785156 472.222656 1788.160156 C 472.222656 1798.542969 471.21875 1823.324219 470.214844 1832.03125 C 469.878906 1835.714844 469.210938 1842.410156 468.875 1847.433594 C 468.203125 1852.457031 467.871094 1860.496094 467.535156 1865.519531 C 465.527344 1907.042969 465.527344 1906.375 465.527344 1946.558594 C 465.527344 1980.714844 465.527344 1987.414062 466.195312 1994.78125 C 466.53125 1999.46875 467.535156 2011.527344 468.203125 2021.570312 C 468.875 2031.617188 469.878906 2044.007812 470.546875 2049.03125 C 471.554688 2060.417969 471.886719 2071.46875 470.882812 2077.496094 C 470.214844 2081.851562 468.539062 2088.210938 467.199219 2091.226562 C 466.195312 2093.570312 466.53125 2094.238281 467.871094 2094.574219 C 470.214844 2094.910156 473.5625 2098.929688 474.902344 2102.277344 C 477.246094 2108.640625 479.589844 2120.359375 479.589844 2127.058594 C 479.589844 2131.078125 478.585938 2133.421875 475.90625 2136.433594 L 474.234375 2138.109375 L 477.246094 2138.445312 C 478.921875 2138.445312 480.929688 2138.777344 481.933594 2139.113281 C 484.277344 2139.785156 487.628906 2143.132812 489.636719 2147.152344 C 491.3125 2150.164062 492.316406 2151.839844 498.007812 2156.863281 C 501.691406 2160.210938 506.046875 2164.898438 507.71875 2167.242188 C 509.394531 2169.253906 513.414062 2173.605469 516.09375 2176.285156 C 521.449219 2181.308594 522.789062 2183.316406 523.125 2186.332031 C 523.460938 2187.335938 523.792969 2188.339844 524.464844 2188.675781 C 526.472656 2190.015625 529.820312 2193.699219 530.828125 2196.042969 C 531.496094 2197.046875 531.832031 2199.058594 531.832031 2200.0625 C 531.832031 2202.070312 531.832031 2202.070312 544.554688 2210.777344 C 548.238281 2213.457031 553.261719 2217.140625 555.941406 2219.484375 C 563.308594 2225.511719 583.066406 2240.582031 589.765625 2245.605469 C 616.21875 2264.359375 622.917969 2270.71875 626.601562 2280.433594 C 628.277344 2284.449219 628.609375 2289.472656 627.605469 2294.160156 C 626.9375 2296.839844 626.9375 2297.84375 627.269531 2299.183594 C 627.941406 2301.53125 627.941406 2305.546875 627.269531 2307.558594 C 625.597656 2312.582031 616.21875 2322.960938 611.195312 2325.640625 C 604.5 2328.988281 595.457031 2330.664062 583.402344 2330.328125 C 576.371094 2330.328125 573.691406 2329.996094 563.644531 2328.65625 C 557.28125 2327.648438 549.578125 2326.644531 546.230469 2325.976562 C 527.144531 2322.625 503.703125 2314.589844 482.269531 2304.878906 C 477.914062 2302.871094 470.214844 2299.519531 465.191406 2297.175781 C 452.464844 2291.484375 441.75 2286.125 432.039062 2280.097656 C 425.675781 2276.078125 423.332031 2274.738281 419.980469 2273.734375 C 417.636719 2273.066406 413.285156 2271.390625 409.9375 2270.386719 C 403.574219 2268.042969 397.878906 2267.039062 390.847656 2266.03125 C 388.503906 2265.699219 383.816406 2265.027344 380.464844 2264.691406 C 377.117188 2264.023438 371.425781 2263.351562 367.742188 2263.019531 C 352.335938 2260.675781 340.617188 2257.324219 332.914062 2252.300781 C 326.214844 2247.949219 322.53125 2243.929688 320.859375 2239.242188 C 318.515625 2232.878906 318.515625 2221.828125 321.191406 2215.464844 L 322.199219 2212.453125 L 320.859375 2209.101562 C 319.855469 2206.089844 319.519531 2204.75 319.519531 2199.726562 C 319.183594 2193.027344 320.523438 2173.605469 322.199219 2162.890625 C 323.203125 2154.519531 324.207031 2152.175781 326.550781 2149.496094 C 327.554688 2148.492188 328.226562 2147.484375 327.890625 2147.484375 C 325.546875 2147.484375 316.503906 2140.789062 314.832031 2137.773438 C 313.824219 2135.765625 313.492188 2135.429688 313.824219 2131.410156 C 314.160156 2125.382812 318.179688 2105.625 319.519531 2102.945312 C 320.1875 2101.941406 321.527344 2100.269531 322.199219 2099.261719 L 323.871094 2097.589844 L 322.199219 2086.539062 C 321.191406 2080.511719 320.1875 2071.804688 319.519531 2067.449219 C 318.179688 2058.742188 315.164062 2036.640625 313.15625 2023.582031 C 311.816406 2015.210938 311.816406 2017.21875 312.152344 1974.019531 C 312.152344 1952.585938 311.816406 1938.855469 310.476562 1917.089844 C 309.136719 1891.972656 307.796875 1819.976562 308.46875 1803.902344 C 309.136719 1787.828125 311.148438 1765.054688 312.488281 1758.023438 C 312.820312 1755.679688 312.820312 1755.34375 310.8125 1750.65625 C 305.453125 1737.929688 305.117188 1727.550781 308.46875 1712.144531 L 309.472656 1708.125 L 307.796875 1704.777344 C 305.453125 1699.753906 304.113281 1694.398438 303.445312 1689.707031 C 302.773438 1684.351562 303.445312 1678.992188 306.457031 1666.265625 C 310.140625 1650.527344 311.148438 1645.503906 311.816406 1631.105469 C 312.488281 1619.71875 312.152344 1608.332031 310.476562 1593.265625 C 308.800781 1577.859375 308.800781 1563.460938 309.472656 1547.71875 C 310.140625 1533.65625 310.476562 1525.953125 310.476562 1525.953125 C 310.140625 1525.953125 302.441406 1541.691406 300.429688 1546.714844 C 299.425781 1549.058594 295.742188 1558.101562 292.394531 1566.808594 C 278.328125 1601.96875 274.308594 1613.691406 262.925781 1655.550781 C 256.898438 1677.652344 254.21875 1686.359375 246.851562 1704.441406 C 243.5 1712.816406 240.824219 1721.1875 240.152344 1723.867188 C 239.484375 1726.546875 238.144531 1731.566406 237.472656 1735.25 C 234.460938 1747.976562 230.441406 1758.359375 225.082031 1769.410156 C 221.066406 1777.113281 220.058594 1779.789062 217.714844 1790.839844 C 214.367188 1805.578125 213.027344 1808.253906 202.648438 1819.976562 L 199.632812 1823.324219 L 195.613281 1851.121094 C 193.269531 1866.523438 190.589844 1887.621094 189.25 1898.335938 C 187.910156 1909.054688 185.902344 1925.128906 184.5625 1933.835938 C 181.214844 1954.261719 180.878906 1956.941406 179.207031 1973.015625 C 177.53125 1988.753906 176.527344 1995.453125 174.183594 2006.835938 C 171.503906 2019.898438 169.492188 2029.273438 162.460938 2055.058594 C 156.769531 2077.160156 155.765625 2082.183594 154.425781 2098.929688 C 153.753906 2107.96875 153.417969 2110.316406 150.742188 2124.378906 C 150.070312 2129.066406 148.730469 2136.101562 148.0625 2140.117188 C 146.386719 2150.164062 145.71875 2153.515625 143.707031 2159.542969 L 142.035156 2164.566406 L 143.707031 2165.570312 C 144.710938 2166.238281 145.71875 2167.578125 146.386719 2168.582031 C 147.390625 2170.59375 147.390625 2170.925781 147.390625 2182.3125 C 147.390625 2192.695312 147.390625 2194.035156 146.050781 2201.734375 C 144.042969 2213.792969 142.035156 2217.808594 137.679688 2220.152344 C 135.671875 2221.160156 134.332031 2221.160156 129.976562 2221.492188 L 124.621094 2221.828125 L 124.621094 2225.511719 C 124.621094 2230.199219 123.617188 2234.21875 121.941406 2237.566406 C 120.601562 2239.910156 120.601562 2240.246094 121.269531 2242.925781 C 121.605469 2244.601562 121.605469 2250.960938 121.605469 2257.996094 C 121.269531 2279.09375 121.605469 2280.097656 122.609375 2285.457031 C 123.949219 2292.488281 124.285156 2297.511719 124.285156 2302.867188 C 124.285156 2307.558594 124.621094 2308.226562 126.628906 2316.265625 C 127.96875 2320.953125 129.308594 2326.980469 129.976562 2329.660156 C 130.648438 2332.339844 131.316406 2336.355469 131.988281 2338.367188 C 134.667969 2347.074219 135.671875 2353.101562 136.007812 2357.117188 C 136.339844 2362.140625 136.675781 2364.152344 140.359375 2374.867188 C 142.035156 2379.554688 143.707031 2385.25 144.378906 2387.925781 C 151.410156 2417.0625 151.746094 2419.070312 151.746094 2429.789062 C 151.746094 2437.15625 151.074219 2441.171875 148.0625 2447.199219 C 145.71875 2452.222656 142.035156 2456.914062 136.675781 2461.265625 C 130.984375 2466.289062 127.96875 2468.296875 121.941406 2471.3125 C 112.898438 2476 105.53125 2478.679688 96.492188 2480.355469 C 91.464844 2482.027344 76.398438 2483.03125 69.03125 2482.027344 Z M 642.675781 609.058594 C 643.34375 603.699219 644.683594 596.332031 645.355469 592.984375 C 646.359375 587.625 650.042969 550.789062 650.042969 547.441406 C 650.042969 546.773438 648.367188 550.789062 646.359375 556.816406 C 640.664062 572.222656 635.976562 583.941406 628.609375 600.351562 C 626.9375 603.699219 625.929688 606.714844 625.929688 606.714844 C 625.929688 606.714844 627.941406 608.390625 629.949219 610.0625 C 632.292969 611.738281 635.644531 614.417969 637.652344 616.089844 C 639.660156 617.765625 641.335938 619.105469 641.335938 618.769531 C 641.335938 618.769531 642.003906 614.417969 642.675781 609.058594 Z M 540.203125 503.238281 C 543.550781 498.214844 547.570312 491.515625 549.578125 488.167969 C 553.933594 480.800781 574.695312 442.960938 574.359375 442.960938 C 574.359375 442.960938 573.355469 443.292969 572.6875 443.628906 C 565.652344 447.3125 536.519531 458.699219 524.464844 462.71875 C 518.433594 464.726562 510.0625 467.070312 504.035156 468.410156 L 502.695312 468.746094 L 506.714844 474.773438 C 509.394531 479.125 512.074219 482.140625 515.085938 485.152344 C 519.773438 489.84375 519.773438 490.175781 521.785156 496.875 C 522.789062 499.890625 522.789062 500.222656 526.808594 503.90625 C 529.152344 505.917969 531.496094 508.929688 532.5 510.269531 C 533.503906 511.609375 534.175781 512.613281 534.175781 512.613281 C 534.507812 511.945312 537.1875 507.925781 540.203125 503.238281 Z M 492.984375 439.609375 C 502.695312 437.9375 514.75 435.257812 528.480469 431.574219 C 562.972656 422.53125 566.992188 421.527344 575.699219 418.179688 C 589.09375 413.15625 587.753906 414.160156 589.765625 409.136719 C 590.769531 406.792969 594.117188 400.09375 597.132812 394.066406 C 606.171875 377.324219 607.847656 371.964844 609.1875 361.917969 C 610.191406 354.550781 609.1875 348.523438 604.5 329.769531 C 599.140625 308.339844 598.136719 300.636719 598.804688 289.921875 C 599.140625 285.902344 599.140625 282.554688 599.140625 282.21875 C 599.140625 282.21875 595.121094 285.566406 590.769531 290.253906 C 586.414062 294.945312 578.378906 302.3125 573.019531 306.328125 C 567.996094 310.683594 557.28125 319.726562 549.246094 326.757812 C 526.808594 346.179688 516.761719 353.882812 503.03125 363.257812 L 495.328125 368.617188 L 495.664062 370.625 C 496.332031 382.011719 489.636719 397.75 479.589844 408.800781 C 476.242188 412.484375 469.207031 418.847656 466.195312 421.191406 L 463.515625 422.867188 L 467.535156 425.210938 C 473.898438 428.894531 479.253906 433.25 483.273438 438.941406 C 483.945312 439.945312 484.949219 440.617188 485.28125 440.617188 C 485.953125 440.949219 489.300781 440.28125 492.984375 439.609375 Z M 476.242188 66.890625 C 476.242188 66.558594 475.90625 66.222656 475.238281 65.886719 C 474.230469 65.21875 474.230469 65.21875 475.238281 66.222656 C 476.242188 67.226562 476.242188 67.5625 476.242188 66.890625 Z M 476.242188 66.890625 " fill-opacity="1" fill-rule="nonzero"/></g></g></g></g></g><g fill="#455a5e" fill-opacity="1"><g transform="translate(1148.984363, 890.936511)"><g><path d="M 73.734375 0 L 73.734375 -285.515625 L 0 -285.515625 L 0 -310.25 L 174.453125 -310.25 L 174.453125 -285.515625 L 100.71875 -285.515625 L 100.71875 0 Z M 73.734375 0 "/></g></g></g><g fill="#455a5e" fill-opacity="1"><g transform="translate(1445.744822, 890.936511)"><g><path d="M 165.46875 0 L 165.46875 -134.890625 C 165.46875 -141.785156 165.164062 -148.90625 164.5625 -156.25 C 163.96875 -163.59375 162.394531 -170.335938 159.84375 -176.484375 C 157.300781 -182.628906 153.476562 -187.648438 148.375 -191.546875 C 143.28125 -195.441406 136.238281 -197.390625 127.25 -197.390625 C 118.851562 -197.390625 111.28125 -195.066406 104.53125 -190.421875 C 97.789062 -185.773438 91.875 -180.003906 86.78125 -173.109375 C 81.6875 -166.210938 77.414062 -158.71875 73.96875 -150.625 C 70.519531 -142.53125 67.894531 -135.035156 66.09375 -128.140625 C 61.894531 -112.859375 59.796875 -97.421875 59.796875 -81.828125 L 59.796875 0 L 37.3125 0 L 37.3125 -310.25 L 59.796875 -310.25 L 59.796875 -161.421875 L 60.703125 -161.421875 C 63.703125 -170.410156 67.148438 -178.425781 71.046875 -185.46875 C 74.941406 -192.519531 79.660156 -198.515625 85.203125 -203.453125 C 90.753906 -208.398438 97.273438 -212.222656 104.765625 -214.921875 C 112.253906 -217.617188 121.25 -218.96875 131.75 -218.96875 C 135.34375 -218.96875 139.007812 -218.519531 142.75 -217.625 C 146.5 -216.726562 150.023438 -215.679688 153.328125 -214.484375 C 165.921875 -209.378906 174.835938 -201.957031 180.078125 -192.21875 C 185.328125 -182.476562 187.953125 -171.164062 187.953125 -158.28125 L 187.953125 0 Z M 165.46875 0 "/></g></g></g><g fill="#455a5e" fill-opacity="1"><g transform="translate(1792.414933, 890.936511)"><g><path d="M 145.6875 -152.421875 C 145.6875 -165.316406 141.410156 -176.035156 132.859375 -184.578125 C 124.316406 -193.117188 113.601562 -197.390625 100.71875 -197.390625 C 86.03125 -197.390625 74.5625 -193.34375 66.3125 -185.25 C 58.070312 -177.15625 52.601562 -166.210938 49.90625 -152.421875 Z M 168.171875 -0.453125 C 152.273438 3.148438 136.6875 4.953125 121.40625 4.953125 C 103.113281 4.953125 87.523438 1.953125 74.640625 -4.046875 C 61.753906 -10.046875 51.265625 -18.363281 43.171875 -29 C 35.078125 -39.644531 29.15625 -52.085938 25.40625 -66.328125 C 21.65625 -80.566406 19.78125 -96.078125 19.78125 -112.859375 C 19.78125 -126.648438 21.050781 -139.914062 23.59375 -152.65625 C 26.144531 -165.394531 30.492188 -176.707031 36.640625 -186.59375 C 42.785156 -196.488281 51.101562 -204.359375 61.59375 -210.203125 C 72.09375 -216.046875 85.285156 -218.96875 101.171875 -218.96875 C 112.554688 -218.96875 122.671875 -217.019531 131.515625 -213.125 C 140.359375 -209.226562 147.851562 -203.90625 154 -197.15625 C 160.144531 -190.414062 164.789062 -182.320312 167.9375 -172.875 C 171.082031 -163.4375 172.65625 -153.175781 172.65625 -142.09375 L 172.65625 -130.84375 L 47.21875 -130.84375 C 46.914062 -127.25 46.765625 -123.578125 46.765625 -119.828125 C 46.765625 -116.078125 46.765625 -112.40625 46.765625 -108.8125 C 46.765625 -95.625 48.335938 -83.410156 51.484375 -72.171875 C 54.628906 -60.929688 59.5 -51.1875 66.09375 -42.9375 C 72.6875 -34.695312 81.15625 -28.253906 91.5 -23.609375 C 101.84375 -18.960938 114.359375 -16.640625 129.046875 -16.640625 C 135.335938 -16.640625 141.929688 -17.160156 148.828125 -18.203125 C 155.722656 -19.253906 162.171875 -20.679688 168.171875 -22.484375 Z M 168.171875 -0.453125 "/></g></g></g><g fill="#455a5e" fill-opacity="1"><g transform="translate(2105.811978, 890.936511)"><g/></g></g><g fill="#455a5e" fill-opacity="1"><g transform="translate(2336.026206, 890.936511)"><g><path d="M 73.734375 0 L 73.734375 -285.515625 L 0 -285.515625 L 0 -310.25 L 174.453125 -310.25 L 174.453125 -285.515625 L 100.71875 -285.515625 L 100.71875 0 Z M 73.734375 0 "/></g></g></g><g fill="#455a5e" fill-opacity="1"><g transform="translate(2632.786612, 890.936511)"><g><path d="M 37.765625 0 L 37.765625 -214.03125 L 60.25 -214.03125 L 60.25 -170.40625 L 61.15625 -170.40625 C 72.238281 -202.78125 94.867188 -218.96875 129.046875 -218.96875 L 129.046875 -194.6875 C 114.953125 -194.6875 103.484375 -191.085938 94.640625 -183.890625 C 85.804688 -176.703125 78.835938 -167.710938 73.734375 -156.921875 C 68.640625 -146.128906 65.117188 -134.4375 63.171875 -121.84375 C 61.222656 -109.257812 60.25 -97.421875 60.25 -86.328125 L 60.25 0 Z M 37.765625 0 "/></g></g></g><g fill="#455a5e" fill-opacity="1"><g transform="translate(2896.27384, 890.936511)"><g><path d="M 117.8125 -99.375 C 110.007812 -99.375 101.910156 -98.625 93.515625 -97.125 C 85.128906 -95.625 77.335938 -93.070312 70.140625 -89.46875 C 62.953125 -85.875 57.03125 -80.929688 52.375 -74.640625 C 47.726562 -68.347656 45.40625 -60.554688 45.40625 -51.265625 C 45.40625 -42.265625 48.550781 -35.140625 54.84375 -29.890625 C 61.144531 -24.648438 68.644531 -22.03125 77.34375 -22.03125 C 87.832031 -22.03125 97.945312 -24.726562 107.6875 -30.125 C 117.425781 -35.519531 124.992188 -42.710938 130.390625 -51.703125 C 134.890625 -59.203125 137.660156 -66.847656 138.703125 -74.640625 C 139.753906 -82.429688 140.28125 -90.675781 140.28125 -99.375 Z M 140.28125 0 L 140.28125 -30.125 L 139.390625 -30.125 C 123.203125 -6.738281 101.019531 4.953125 72.84375 4.953125 C 55.457031 4.953125 42.039062 -0.367188 32.59375 -11.015625 C 23.15625 -21.660156 18.4375 -35.375 18.4375 -52.15625 C 18.4375 -67.445312 22.628906 -79.660156 31.015625 -88.796875 C 39.410156 -97.941406 49.753906 -104.835938 62.046875 -109.484375 C 74.335938 -114.128906 87.523438 -117.203125 101.609375 -118.703125 C 115.703125 -120.203125 128.59375 -120.953125 140.28125 -120.953125 C 140.28125 -130.242188 140.207031 -139.457031 140.0625 -148.59375 C 139.914062 -157.738281 138.566406 -165.910156 136.015625 -173.109375 C 133.460938 -180.304688 128.960938 -186.148438 122.515625 -190.640625 C 116.078125 -195.140625 106.5625 -197.390625 93.96875 -197.390625 C 81.082031 -197.390625 71.039062 -194.765625 63.84375 -189.515625 C 56.65625 -184.273438 51.859375 -175.359375 49.453125 -162.765625 L 22.03125 -162.765625 C 22.03125 -172.960938 24.203125 -181.582031 28.546875 -188.625 C 32.898438 -195.664062 38.597656 -201.4375 45.640625 -205.9375 C 52.679688 -210.4375 60.625 -213.734375 69.46875 -215.828125 C 78.3125 -217.921875 87.078125 -218.96875 95.765625 -218.96875 C 108.660156 -218.96875 119.453125 -217.394531 128.140625 -214.25 C 136.835938 -211.101562 143.734375 -206.457031 148.828125 -200.3125 C 153.921875 -194.164062 157.515625 -186.597656 159.609375 -177.609375 C 161.710938 -168.617188 162.765625 -158.128906 162.765625 -146.140625 L 162.765625 0 Z M 140.28125 0 "/></g></g></g><g fill="#455a5e" fill-opacity="1"><g transform="translate(3217.764198, 890.936511)"><g><path d="M 88.578125 0 L 4.953125 -214.03125 L 29.671875 -214.03125 L 100.265625 -34.625 L 162.3125 -214.03125 L 187.046875 -214.03125 L 113.3125 0 Z M 88.578125 0 "/></g></g></g><g fill="#455a5e" fill-opacity="1"><g transform="translate(3531.16119, 890.936511)"><g><path d="M 145.6875 -152.421875 C 145.6875 -165.316406 141.410156 -176.035156 132.859375 -184.578125 C 124.316406 -193.117188 113.601562 -197.390625 100.71875 -197.390625 C 86.03125 -197.390625 74.5625 -193.34375 66.3125 -185.25 C 58.070312 -177.15625 52.601562 -166.210938 49.90625 -152.421875 Z M 168.171875 -0.453125 C 152.273438 3.148438 136.6875 4.953125 121.40625 4.953125 C 103.113281 4.953125 87.523438 1.953125 74.640625 -4.046875 C 61.753906 -10.046875 51.265625 -18.363281 43.171875 -29 C 35.078125 -39.644531 29.15625 -52.085938 25.40625 -66.328125 C 21.65625 -80.566406 19.78125 -96.078125 19.78125 -112.859375 C 19.78125 -126.648438 21.050781 -139.914062 23.59375 -152.65625 C 26.144531 -165.394531 30.492188 -176.707031 36.640625 -186.59375 C 42.785156 -196.488281 51.101562 -204.359375 61.59375 -210.203125 C 72.09375 -216.046875 85.285156 -218.96875 101.171875 -218.96875 C 112.554688 -218.96875 122.671875 -217.019531 131.515625 -213.125 C 140.359375 -209.226562 147.851562 -203.90625 154 -197.15625 C 160.144531 -190.414062 164.789062 -182.320312 167.9375 -172.875 C 171.082031 -163.4375 172.65625 -153.175781 172.65625 -142.09375 L 172.65625 -130.84375 L 47.21875 -130.84375 C 46.914062 -127.25 46.765625 -123.578125 46.765625 -119.828125 C 46.765625 -116.078125 46.765625 -112.40625 46.765625 -108.8125 C 46.765625 -95.625 48.335938 -83.410156 51.484375 -72.171875 C 54.628906 -60.929688 59.5 -51.1875 66.09375 -42.9375 C 72.6875 -34.695312 81.15625 -28.253906 91.5 -23.609375 C 101.84375 -18.960938 114.359375 -16.640625 129.046875 -16.640625 C 135.335938 -16.640625 141.929688 -17.160156 148.828125 -18.203125 C 155.722656 -19.253906 162.171875 -20.679688 168.171875 -22.484375 Z M 168.171875 -0.453125 "/></g></g></g><g fill="#455a5e" fill-opacity="1"><g transform="translate(3844.558182, 890.936511)"><g><path d="M 38.671875 0 L 38.671875 -310.25 L 61.15625 -310.25 L 61.15625 0 Z M 38.671875 0 "/></g></g></g><g fill="#455a5e" fill-opacity="1"><g transform="translate(4066.22925, 890.936511)"><g><path d="M 38.671875 0 L 38.671875 -214.03125 L 61.15625 -214.03125 L 61.15625 0 Z M 33.265625 -273.828125 L 33.265625 -310.25 L 66.546875 -310.25 L 66.546875 -273.828125 Z M 33.265625 -273.828125 "/></g></g></g><g fill="#455a5e" fill-opacity="1"><g transform="translate(4287.900317, 890.936511)"><g><path d="M 165.015625 0 L 165.015625 -134.890625 C 165.015625 -141.785156 164.710938 -148.90625 164.109375 -156.25 C 163.515625 -163.59375 162.019531 -170.335938 159.625 -176.484375 C 157.226562 -182.628906 153.476562 -187.648438 148.375 -191.546875 C 143.28125 -195.441406 136.238281 -197.390625 127.25 -197.390625 C 118.851562 -197.390625 111.28125 -195.066406 104.53125 -190.421875 C 97.789062 -185.773438 91.875 -180.003906 86.78125 -173.109375 C 81.6875 -166.210938 77.414062 -158.71875 73.96875 -150.625 C 70.519531 -142.53125 67.894531 -135.035156 66.09375 -128.140625 C 61.894531 -112.859375 59.796875 -97.421875 59.796875 -81.828125 L 59.796875 0 L 37.3125 0 L 37.3125 -214.03125 L 59.796875 -214.03125 L 59.796875 -161.421875 L 60.703125 -161.421875 C 63.703125 -170.410156 67.148438 -178.425781 71.046875 -185.46875 C 74.941406 -192.519531 79.660156 -198.515625 85.203125 -203.453125 C 90.753906 -208.398438 97.273438 -212.222656 104.765625 -214.921875 C 112.253906 -217.617188 121.25 -218.96875 131.75 -218.96875 C 135.34375 -218.96875 139.007812 -218.519531 142.75 -217.625 C 146.5 -216.726562 150.023438 -215.679688 153.328125 -214.484375 C 165.617188 -209.679688 174.382812 -202.257812 179.625 -192.21875 C 184.875 -182.175781 187.5 -170.863281 187.5 -158.28125 L 187.5 0 Z M 165.015625 0 "/></g></g></g><g fill="#455a5e" fill-opacity="1"><g transform="translate(4634.570481, 890.936511)"><g><path d="M 97.578125 -21.578125 C 108.066406 -21.578125 116.984375 -24.570312 124.328125 -30.5625 C 131.671875 -36.5625 137.664062 -43.984375 142.3125 -52.828125 C 146.957031 -61.671875 150.328125 -71.1875 152.421875 -81.375 C 154.523438 -91.570312 155.578125 -101.019531 155.578125 -109.71875 C 155.578125 -118.101562 154.523438 -127.46875 152.421875 -137.8125 C 150.328125 -148.15625 147.03125 -157.671875 142.53125 -166.359375 C 138.039062 -175.054688 132.125 -182.398438 124.78125 -188.390625 C 117.4375 -194.390625 108.515625 -197.390625 98.015625 -197.390625 C 87.523438 -197.390625 78.984375 -193.941406 72.390625 -187.046875 C 65.796875 -180.148438 60.695312 -171.832031 57.09375 -162.09375 C 53.5 -152.351562 51.023438 -142.085938 49.671875 -131.296875 C 48.328125 -120.503906 47.65625 -111.359375 47.65625 -103.859375 C 47.65625 -95.472656 48.253906 -86.484375 49.453125 -76.890625 C 50.660156 -67.296875 52.984375 -58.375 56.421875 -50.125 C 59.867188 -41.882812 64.890625 -35.066406 71.484375 -29.671875 C 78.085938 -24.273438 86.785156 -21.578125 97.578125 -21.578125 Z M 156.03125 -44.515625 L 155.125 -44.515625 C 151.53125 -30.722656 144.484375 -19.851562 133.984375 -11.90625 C 123.492188 -3.96875 111.054688 0 96.671875 0 C 80.785156 0 67.894531 -3.144531 58 -9.4375 C 48.113281 -15.738281 40.394531 -24.054688 34.84375 -34.390625 C 29.300781 -44.734375 25.554688 -56.273438 23.609375 -69.015625 C 21.660156 -81.753906 20.6875 -94.71875 20.6875 -107.90625 C 20.6875 -119.601562 21.882812 -131.96875 24.28125 -145 C 26.675781 -158.039062 30.796875 -170.03125 36.640625 -180.96875 C 42.484375 -191.914062 50.203125 -200.984375 59.796875 -208.171875 C 69.390625 -215.367188 81.378906 -218.96875 95.765625 -218.96875 C 111.054688 -218.96875 123.796875 -215.144531 133.984375 -207.5 C 144.179688 -199.863281 151.226562 -188.847656 155.125 -174.453125 L 156.03125 -174.453125 L 156.03125 -214.03125 L 178.5 -214.03125 L 178.5 -5.390625 C 178.5 24.578125 171.378906 47.953125 157.140625 64.734375 C 142.910156 81.523438 120.207031 89.921875 89.03125 89.921875 C 79.4375 89.921875 70.066406 89.242188 60.921875 87.890625 C 51.785156 86.546875 42.566406 84.828125 33.265625 82.734375 L 33.265625 59.796875 C 41.359375 62.203125 49.300781 64.226562 57.09375 65.875 C 64.894531 67.519531 72.992188 68.34375 81.390625 68.34375 C 94.273438 68.34375 105.4375 67.066406 114.875 64.515625 C 124.320312 61.972656 132.117188 57.851562 138.265625 52.15625 C 144.410156 46.457031 148.90625 38.960938 151.75 29.671875 C 154.601562 20.378906 156.03125 9.140625 156.03125 -4.046875 Z M 156.03125 -44.515625 "/></g></g></g></svg>